# xmcd CD database file
#
# Track frame offsets:
#	150
#	32112
#	35924
#	53893
#	78529
#	86758
#	92336
#	109160
#	112968
#	124790
#	131461
#	141901
#	149217
#	166223
#
# Disc length: 2341 seconds
#
# Revision: 0
# Processed by: cddbd v1.5.2PL0 Copyright (c) Steve Scherf et al.
# Submitted via: CDex 1.70beta2
#
DISCID=c709230e
DTITLE=Luigi - Master Jazz Class (Music Only)
DYEAR=1900
DGENRE=Jazz
TTITLE0=The Pre-Warm Up
TTITLE1=Chest Against the Thighs
TTITLE2=The Pliés and Frappés
TTITLE3=First Port de Bras
TTITLE4=Second Port de Bras
TTITLE5=Turn Out, Turn In
TTITLE6=Third Port de Bras
TTITLE7=Circle the Insteps
TTITLE8=Fwd and Back and Developpés
TTITLE9=Relax the Back and in 2nd
TTITLE10=Turn Down
TTITLE11=Kickouts on Stomach
TTITLE12=The Last Stretch
TTITLE13=Kickouts
EXTD=
EXTT0=
EXTT1=
EXTT2=
EXTT3=
EXTT4=
EXTT5=
EXTT6=
EXTT7=
EXTT8=
EXTT9=
EXTT10=
EXTT11=
EXTT12=
EXTT13=
PLAYORDER=
